PathFileType	4	(X/Y/Z)	SUBJ59_1_walk_RCNL2025.trc
DataRate	CameraRate	NumFrames	NumMarkers	Units	OrigDataRate	OrigDataStartFrame	OrigNumFrames
100	100	12	25	mm	100	87	345
Frame#	Time	R_Shoulder			L_Shoulder			C7			J_Notch			R_Elbow			L_Elbow			R_Wrist			L_Wrist			R_Asis			L_Asis			Sacral			Thoracic			Sternum			R_Thigh_Lateral			R_Knee_Lateral			R_Shank_Lateral			R_Ankle_Lateral			R_Heel			R_Toe			L_Thigh_Lateral			L_Knee_Lateral			L_Shank_Lateral			L_Ankle_Lateral			L_Heel			L_Toe		
		X1	Y1	Z1	X2	Y2	Z2	X3	Y3	Z3	X4	Y4	Z4	X5	Y5	Z5	X6	Y6	Z6	X7	Y7	Z7	X8	Y8	Z8	X9	Y9	Z9	X10	Y10	Z10	X11	Y11	Z11	X12	Y12	Z12	X13	Y13	Z13	X14	Y14	Z14	X15	Y15	Z15	X16	Y16	Z16	X17	Y17	Z17	X18	Y18	Z18	X19	Y19	Z19	X20	Y20	Z20	X21	Y21	Z21	X22	Y22	Z22	X23	Y23	Z23	X24	Y24	Z24	X25	Y25	Z25
87	0.86000000	-1273.706665	1425.213867	524.037964	-1296.564453	1450.304565	124.381554	-1373.194580	1528.766724	329.172699	-1215.319458	1423.993164	321.415253	-1277.106567	1124.315674	639.744690	-1382.090210	1115.412598	34.979614	-1156.460022	871.880585	632.537292	-1374.158997	848.155121	49.478326	-1244.721924	964.702271	454.968414	-1222.296265	966.102356	229.522705	-1449.475342	993.541260	314.651245	-1448.162964	1317.497070	313.817993	-1170.050659	1227.067871	322.077576	-1418.207031	590.483276	524.334839	-1456.301758	500.358459	466.385345	-1549.975098	321.147308	535.410217	-1664.926147	100.306740	416.596771	-1702.094727	103.850014	369.678131	-1516.287231	35.423306	382.354858	-1225.016235	584.381470	145.046188	-1189.579834	484.548676	205.648544	-1151.497192	293.548096	150.548477	-1104.800049	71.503853	229.633942	-1145.348877	46.766098	286.056213	-942.046753	47.210712	266.302032
88	0.87000000	-1262.802856	1427.638794	522.234009	-1285.084229	1451.078979	122.388695	-1362.010132	1530.446899	326.659729	-1204.079468	1425.786011	319.514221	-1268.889038	1126.290161	637.794250	-1368.643677	1115.536377	34.041679	-1151.081909	872.461212	631.651703	-1360.660645	848.352020	48.987846	-1233.445801	965.924438	454.149963	-1211.007080	967.955994	228.756622	-1438.269897	995.559448	313.958221	-1436.775757	1318.990356	312.195221	-1158.513550	1228.941650	320.851196	-1404.956787	591.331299	525.001099	-1442.656616	500.836548	467.461273	-1540.747681	324.199982	536.556824	-1660.716553	106.061348	417.943146	-1697.300293	111.341698	370.987122	-1515.566406	35.195827	382.252808	-1216.977173	586.321960	144.210815	-1182.441772	485.658264	204.740860	-1144.492554	294.515350	149.628738	-1103.110962	71.301056	229.322433	-1144.571167	47.395950	285.430084	-940.714172	44.489059	266.388550
89	0.88000000	-1251.947510	1430.445679	520.447571	-1273.507935	1452.259644	120.470123	-1350.888062	1532.409912	324.196014	-1192.883667	1427.938599	317.662231	-1260.885986	1128.576416	635.744507	-1354.923584	1116.050171	33.114815	-1146.171997	873.301941	630.745758	-1346.697266	848.977570	48.479445	-1222.098389	967.442078	453.158295	-1199.842896	970.074829	227.793228	-1427.063721	998.005005	313.396790	-1425.399292	1320.678955	310.569397	-1147.000000	1231.138916	319.626221	-1390.611572	592.112915	525.885193	-1427.849854	501.248840	468.833282	-1530.545410	327.494690	537.965820	-1655.548218	112.343643	419.449188	-1691.363525	119.539619	372.446991	-1514.705078	34.925182	382.167542	-1209.420654	588.296082	143.199921	-1175.666870	486.938934	203.726303	-1138.438721	295.437683	148.509384	-1101.904541	71.192009	228.949570	-1144.048584	47.906284	284.782074	-939.839661	42.614132	266.457672
90	0.89000000	-1241.171021	1433.553101	518.673401	-1261.850342	1453.800293	118.649063	-1339.873901	1534.580688	321.800812	-1181.770752	1430.377930	315.875610	-1253.071289	1131.126953	633.610596	-1340.960083	1116.919800	32.190006	-1141.682739	874.373138	629.818451	-1332.270447	849.992035	47.953963	-1210.749268	969.193481	451.981110	-1188.806396	972.397156	226.613602	-1415.872681	1000.782959	312.936890	-1414.065918	1322.479858	308.938629	-1135.555054	1233.585571	318.417114	-1375.182983	592.778381	527.010437	-1411.884277	501.542145	470.507355	-1519.241943	330.933411	539.673279	-1649.273071	119.082321	421.166901	-1684.158203	128.360352	374.119141	-1513.623535	34.660072	382.146332	-1202.192871	590.246765	142.071991	-1169.348755	488.275757	202.648727	-1133.596069	296.202209	147.290039	-1101.096558	71.143898	228.556717	-1143.735718	48.291454	284.156036	-939.333862	41.407330	266.562286
91	0.90000000	-1230.507690	1436.860474	516.910889	-1250.128906	1455.626953	116.944809	-1329.006104	1536.865479	319.486115	-1170.774536	1433.010620	314.172638	-1245.421265	1133.871826	631.414185	-1326.796509	1118.087524	31.249544	-1137.553162	875.626160	628.868134	-1317.390991	851.327454	47.414124	-1199.453491	971.100281	450.619843	-1177.896973	974.840637	225.223618	-1404.718750	1003.772766	312.532745	-1402.805786	1324.304932	307.298157	-1124.214355	1236.193604	317.238983	-1358.733276	593.286011	528.368225	-1394.806641	501.658386	472.451385	-1506.717896	334.377411	541.691040	-1641.771484	126.173592	423.137421	-1675.604248	137.668640	376.052216	-1512.179932	34.496735	382.268311	-1195.242920	592.109192	140.891815	-1163.576050	489.562836	201.541473	-1129.994141	296.748383	146.069260	-1100.601685	71.132980	228.172729	-1143.578735	48.563179	283.583191	-939.099060	40.677212	266.717224
92	0.91000000	-1219.995117	1440.257446	515.166504	-1238.361206	1457.643188	115.372307	-1318.315796	1539.160400	317.256622	-1159.920898	1435.728027	312.570740	-1237.920044	1136.720581	629.184692	-1312.480957	1119.471069	30.270844	-1133.712158	876.993805	627.892242	-1302.076355	852.892365	46.862113	-1188.247681	973.075562	449.091766	-1167.112183	977.309753	223.658112	-1393.628906	1006.839172	312.131653	-1391.645386	1326.070435	305.641541	-1113.004883	1238.864380	316.105011	-1341.375854	593.607666	529.912720	-1376.707153	501.546082	474.593079	-1492.876099	337.659119	543.998840	-1632.969482	133.489807	425.381714	-1665.684937	147.281555	378.274536	-1510.155029	34.577488	382.636688	-1188.590088	593.833313	139.714233	-1158.403198	490.719574	200.429672	-1127.499268	297.057465	144.929382	-1100.339966	71.141167	227.817291	-1143.525024	48.741608	283.083771	-939.042358	40.252808	266.917084
93	0.92000000	-1209.670776	1443.629028	513.453857	-1226.564941	1459.738525	113.940742	-1307.824829	1541.362549	315.110504	-1149.225220	1438.415894	311.083313	-1230.559326	1139.567749	626.959534	-1298.058228	1120.970581	29.228865	-1130.084229	878.393066	626.888733	-1286.349487	854.578339	46.299314	-1177.154297	975.030090	447.430084	-1156.446655	979.708252	221.974808	-1382.632812	1009.844849	311.682953	-1380.606201	1327.708618	303.963989	-1101.945068	1241.495239	315.026031	-1323.268677	593.733582	531.563599	-1357.713013	501.176971	476.831360	-1477.657471	340.606689	546.541687	-1622.847412	140.892258	427.891846	-1654.454590	156.982147	380.788849	-1507.245361	35.078323	383.355774	-1182.273560	595.393921	138.575607	-1153.837646	491.699707	199.332825	-1125.885376	297.154785	143.920502	-1100.240234	71.153793	227.505264	-1143.530640	48.848576	282.669434	-939.085754	39.998451	267.151489
94	0.93000000	-1199.566406	1446.861694	511.791748	-1214.759033	1461.799561	112.651680	-1297.543701	1543.383057	313.042236	-1138.693359	1440.966431	309.718231	-1223.336182	1142.301758	624.780823	-1283.569092	1122.479492	28.097868	-1126.596741	879.731873	625.858002	-1270.237976	856.271881	45.726810	-1166.186768	976.879822	445.682129	-1145.890137	981.946838	220.242706	-1371.760864	1012.663452	311.147095	-1369.704468	1329.174683	302.264679	-1091.046265	1243.989136	314.010803	-1304.601929	593.675964	533.220581	-1337.978149	500.562225	479.058105	-1461.050049	343.076385	549.236267	-1611.434814	148.245789	430.623413	-1642.028564	166.537567	383.563812	-1503.073730	36.179607	384.500732	-1176.322388	596.783630	137.493729	-1149.836060	492.492035	198.265594	-1124.883545	297.102783	143.059738	-1100.244019	71.162369	227.246872	-1143.564941	48.904385	282.345154	-939.170471	39.818005	267.408844
95	0.94000000	-1189.705566	1449.851074	510.202606	-1202.965942	1463.720947	111.498741	-1287.468140	1545.158447	311.046234	-1128.323486	1443.291992	308.477997	-1216.250610	1144.814819	622.690308	-1269.048828	1123.899170	26.854967	-1123.186951	880.917938	624.803101	-1253.771667	857.870178	45.145358	-1155.352295	978.554260	443.904999	-1135.432739	983.950439	218.529877	-1361.041016	1015.190430	310.502655	-1358.949829	1330.451660	300.547180	-1080.313232	1246.267090	313.065582	-1285.581787	593.471680	534.785339	-1317.667236	499.760071	481.181061	-1443.097290	344.986481	551.987366	-1598.790649	155.429214	433.494324	-1628.549927	175.716064	386.525391	-1497.231323	38.019478	386.093597	-1170.745483	598.001709	136.470901	-1146.304077	493.113495	197.237488	-1124.229492	296.974274	142.338577	-1100.308594	71.166512	227.045944	-1143.607544	48.927338	282.109894	-939.257263	39.651844	267.673096
96	0.95000000	-1180.100220	1452.509399	508.711029	-1191.213257	1465.416504	110.469147	-1277.579102	1546.659546	309.119537	-1118.109741	1445.335449	307.360443	-1209.303467	1147.015381	620.724792	-1254.522339	1125.150024	25.485552	-1119.804382	881.868896	623.729034	-1236.979919	859.296173	44.555699	-1144.652954	980.004944	442.158264	-1125.071899	985.671936	216.892197	-1350.495605	1017.349792	309.748718	-1348.345581	1331.547241	298.819275	-1069.745361	1248.278442	312.194031	-1266.411865	593.185181	536.182312	-1296.939697	498.871246	483.137146	-1423.909790	346.346100	554.703003	-1584.975952	162.332169	436.396759	-1614.141357	184.301880	389.561127	-1489.353027	40.640671	388.098541	-1165.529785	599.050720	135.497513	-1143.100342	493.597992	196.253998	-1123.700928	296.828644	141.729355	-1100.406616	71.170967	226.899597	-1143.645996	48.933491	281.956329	-939.323608	39.468811	267.922516
97	0.96000000	-1170.749268	1454.772461	507.342834	-1179.534424	1466.828613	109.546127	-1267.842529	1547.893799	307.262543	-1108.043701	1447.075562	306.359528	-1202.493408	1148.838501	618.911682	-1239.997437	1126.179077	23.988394	-1116.413086	882.521576	622.640656	-1219.889465	860.508728	43.958766	-1134.086914	981.212219	440.495972	-1114.818848	987.099121	215.364990	-1340.139893	1019.098328	308.902191	-1337.891113	1332.488892	297.092438	-1059.336426	1250.005859	311.397064	-1247.273560	592.907959	537.372009	-1275.938477	498.024689	484.895081	-1403.675903	347.267761	557.302551	-1570.030396	168.840500	439.223053	-1598.867554	192.109009	392.545349	-1479.196411	43.955067	390.438049	-1160.639893	599.939392	134.557465	-1140.050049	493.986206	195.318985	-1123.124634	296.705627	141.191101	-1100.522827	71.181877	226.799347	-1143.671387	48.936134	281.871429	-939.359497	39.256950	268.135071
98	0.97000000	-1161.638428	1456.607056	506.123322	-1167.968262	1467.935547	108.711639	-1258.215210	1548.901123	305.480286	-1098.116577	1448.525269	305.466125	-1195.812622	1150.252197	617.263062	-1225.464722	1126.965942	22.376995	-1112.992188	882.839722	621.540009	-1202.518250	861.504761	43.354450	-1123.647217	982.188232	438.960297	-1104.701660	988.246765	213.960419	-1329.980713	1020.428162	307.992645	-1327.583740	1333.314819	295.380432	-1049.073486	1251.463135	310.672516	-1228.305176	592.748901	538.352295	-1254.784546	497.358459	486.449493	-1382.650635	347.949463	559.719116	-1553.970093	174.827026	441.893463	-1582.728638	198.987366	395.372650	-1466.674438	47.751823	393.013031	-1156.012695	600.687073	133.635330	-1136.970947	494.318024	194.436066	-1122.367920	296.627045	140.677383	-1100.646484	71.204544	226.733688	-1143.677979	48.946243	281.837830	-939.362488	39.015823	268.296722
